<?xml version="1.0" encoding="utf-8"?>
<!-- Generator: Adobe Illustrator 25.3.1, SVG Export Plug-In . SVG Version: 6.00 Build 0)  -->
<svg version="1.1" id="Layer_1" xmlns="http://www.w3.org/2000/svg" xmlns:xlink="http://www.w3.org/1999/xlink" x="0px" y="0px"
	 viewBox="0 0 22 22" style="enable-background:new 0 0 22 22;" xml:space="preserve">
<style type="text/css">
	.st0{fill-rule:evenodd;clip-rule:evenodd;}
</style>
<path class="st0" d="M21.3,19.2l-5.6-5.6c1-1.4,1.5-3.1,1.5-4.9c0-4.7-3.8-8.5-8.5-8.5S0.3,4.1,0.3,8.8s3.8,8.5,8.5,8.5
	c1.8,0,3.5-0.6,4.9-1.5l5.6,5.6c0.3,0.3,0.7,0.4,1.1,0.4c0.4,0,0.7-0.1,1-0.4l0,0c0.3-0.3,0.4-0.6,0.4-1
	C21.7,19.9,21.6,19.5,21.3,19.2z M2.9,8.8c0-3.2,2.6-5.9,5.9-5.9s5.9,2.6,5.9,5.9s-2.6,5.9-5.9,5.9S2.9,12,2.9,8.8z"/>
</svg>
